<?xml version="1.0" standalone="no"?>
<!DOCTYPE svg PUBLIC "-//W3C//DTD SVG 20010904//EN"
 "http://www.w3.org/TR/2001/REC-SVG-20010904/DTD/svg10.dtd">
<svg version="1.0" xmlns="http://www.w3.org/2000/svg"
 width="512.000000pt" height="512.000000pt" viewBox="0 0 512.000000 512.000000"
 preserveAspectRatio="xMidYMid meet">

<g transform="translate(0.000000,512.000000) scale(0.100000,-0.100000)"
fill="#000000" stroke="none">
<path d="M2523 5100 c-21 -13 -35 -31 -42 -57 -7 -24 -11 -195 -11 -460 l0
-423 -672 0 c-651 0 -674 -1 -705 -20 -18 -11 -36 -32 -40 -47 -10 -36 -10
-400 0 -436 12 -43 61 -67 138 -67 l66 0 6 -42 c3 -24 78 -810 167 -1748 124
-1302 166 -1713 179 -1740 9 -19 27 -40 41 -47 36 -18 1784 -18 1820 0 14 7
32 28 41 47 13 27 55 438 179 1740 89 938 164 1724 167 1748 l6 42 66 0 c77 0
126 24 138 67 5 15 8 114 8 218 0 105 -3 203 -8 218 -4 15 -22 36 -40 47 -31
19 -53 20 -524 20 l-493 0 0 433 c0 391 -2 435 -18 467 -27 55 -46 60 -252 60
-166 0 -188 -2 -217 -20z m277 -555 l0 -375 -60 0 -60 0 0 375 0 375 60 0 60
0 0 -375z m1070 -670 l0 -85 -1310 0 -1310 0 0 85 0 85 1310 0 1310 0 0 -85z
m-220 -312 c0 -33 -308 -3283 -316 -3330 l-5 -33 -769 0 -769 0 -5 33 c-8 47
-316 3297 -316 3330 l0 27 1090 0 1090 0 0 -27z"/>
<path d="M1778 2939 l-31 -30 7 -117 c8 -140 23 -180 78 -200 33 -13 41 -12
75 4 54 27 63 62 51 189 -11 112 -27 157 -64 174 -44 20 -83 13 -116 -20z"/>
<path d="M1852 2202 c-13 -10 -27 -34 -31 -52 -7 -30 106 -1356 124 -1456 14
-81 108 -112 166 -55 25 25 29 37 29 83 0 55 -115 1359 -125 1414 -9 52 -47
84 -97 84 -26 0 -52 -8 -66 -18z"/>
</g>
</svg>
