<?xml version="1.0" standalone="no"?>
<!DOCTYPE svg PUBLIC "-//W3C//DTD SVG 20010904//EN"
 "http://www.w3.org/TR/2001/REC-SVG-20010904/DTD/svg10.dtd">
<svg version="1.0" xmlns="http://www.w3.org/2000/svg"
 width="512.000000pt" height="512.000000pt" viewBox="0 0 512.000000 512.000000"
 preserveAspectRatio="xMidYMid meet">

<g transform="translate(0.000000,512.000000) scale(0.100000,-0.100000)"
fill="#000000" stroke="none">
<path d="M1744 4564 c-277 -33 -565 -135 -805 -284 -250 -155 -484 -389 -639
-639 -175 -283 -276 -601 -296 -936 -11 -175 10 -205 141 -205 l75 0 0 -425 0
-425 -70 0 c-85 0 -124 -17 -139 -61 -15 -45 -14 -603 2 -646 24 -65 73 -119
133 -149 l59 -29 1299 -3 1298 -3 112 -95 c61 -53 124 -103 140 -111 50 -26
82 -10 221 107 l130 110 760 0 c850 0 801 -4 877 72 71 72 73 79 76 408 2 194
0 308 -8 332 -15 51 -50 68 -140 68 l-70 0 0 425 0 425 75 0 c131 0 152 30
141 205 -30 495 -230 940 -580 1291 -322 321 -724 517 -1173 569 -175 21
-1449 20 -1619 -1z m1656 -208 c393 -70 690 -216 959 -472 313 -297 509 -694
546 -1106 l7 -78 -2352 0 -2352 0 7 78 c66 728 613 1361 1330 1541 224 56 295
59 1095 56 571 -2 678 -5 760 -19z m1290 -2016 l0 -160 -2130 0 -2130 0 0 160
0 160 2130 0 2130 0 0 -160z m-3165 -496 c88 -74 170 -146 183 -158 l23 -23
-181 -154 c-100 -85 -185 -155 -189 -157 -9 -3 -724 603 -729 618 -3 7 117 10
365 10 l368 0 160 -136z m2974 129 c-1 -13 -1392 -1188 -1404 -1187 -11 1
-1405 1181 -1405 1190 0 2 632 4 1405 4 773 0 1405 -3 1404 -7z m-3939 -216
c58 -49 109 -94 115 -98 5 -5 -45 -9 -118 -9 l-127 0 0 106 c0 81 3 103 13 98
6 -5 59 -48 117 -97z m4127 -104 c-3 -2 -57 -2 -122 -1 l-118 3 119 102 119
101 3 -100 c1 -55 1 -102 -1 -105z m-3589 -354 c197 -168 225 -189 263 -189
32 0 62 22 269 199 l165 141 97 0 96 0 280 -237 280 -238 -1156 -3 c-1029 -2
-1158 0 -1172 13 -12 13 -16 53 -18 227 -2 116 -1 217 2 224 4 12 69 14 361
14 l355 0 178 -151z m3820 -74 c-2 -186 -6 -227 -18 -240 -14 -13 -88 -15
-635 -13 l-620 3 280 237 280 238 358 0 358 0 -3 -225z"/>
<path d="M2979 4261 c-26 -27 -29 -35 -29 -98 0 -72 13 -100 57 -122 46 -24
110 -2 131 44 17 36 15 120 -3 155 -31 59 -107 69 -156 21z"/>
<path d="M1931 4169 c-50 -50 -38 -125 26 -158 32 -17 168 -14 203 4 60 31 70
109 19 156 -30 28 -35 29 -124 29 -91 0 -94 -1 -124 -31z"/>
<path d="M3568 4093 c-71 -44 -58 -143 24 -193 41 -25 65 -25 104 -1 46 28 61
80 37 128 -21 44 -75 83 -112 83 -14 0 -38 -8 -53 -17z"/>
<path d="M1218 3940 c-20 -17 -42 -46 -48 -65 -23 -71 42 -141 118 -127 14 3
42 22 63 43 52 52 54 102 8 148 -42 42 -91 42 -141 1z"/>
<path d="M2535 3791 c-17 -10 -50 -40 -73 -66 -33 -38 -42 -56 -42 -85 0 -64
63 -111 126 -96 34 9 108 79 129 122 22 46 6 98 -39 125 -39 24 -63 24 -101 0z"/>
<path d="M3252 3725 c-58 -49 -47 -108 34 -187 55 -53 88 -68 127 -61 38 7 77
57 77 97 0 41 -44 105 -102 146 -51 38 -95 39 -136 5z"/>
<path d="M1709 3692 c-26 -24 -32 -36 -32 -72 0 -36 6 -48 32 -72 25 -23 41
-28 81 -28 40 0 56 5 81 28 26 24 32 36 32 72 0 36 -6 48 -32 72 -25 23 -41
28 -81 28 -40 0 -56 -5 -81 -28z"/>
<path d="M3765 1758 c-37 -21 -386 -311 -396 -329 -34 -65 16 -149 88 -149 36
0 57 14 237 161 108 89 202 171 208 183 33 62 -14 146 -81 146 -20 0 -45 -6
-56 -12z"/>
<path d="M3138 1230 c-127 -38 -160 -188 -48 -221 50 -15 87 -1 135 52 45 50
47 95 8 138 -32 34 -57 42 -95 31z"/>
</g>
</svg>
