<?xml version="1.0" standalone="no"?>
<!DOCTYPE svg PUBLIC "-//W3C//DTD SVG 20010904//EN"
 "http://www.w3.org/TR/2001/REC-SVG-20010904/DTD/svg10.dtd">
<svg version="1.0" xmlns="http://www.w3.org/2000/svg"
 width="512.000000pt" height="512.000000pt" viewBox="0 0 512.000000 512.000000"
 preserveAspectRatio="xMidYMid meet">

<g transform="translate(0.000000,512.000000) scale(0.100000,-0.100000)"
fill="#000000" stroke="none">
<path d="M2435 3724 c-175 -27 -384 -79 -737 -183 -465 -138 -640 -177 -842
-192 -180 -13 -249 -29 -362 -84 -213 -103 -371 -284 -453 -517 -17 -48 -33
-110 -37 -137 -14 -107 53 -209 164 -250 32 -11 66 -29 74 -38 10 -11 48 -173
98 -418 99 -483 96 -473 134 -496 30 -18 100 -19 2086 -19 1986 0 2056 1 2086
19 38 23 35 13 134 496 50 245 88 407 98 418 8 9 41 27 73 38 92 34 154 108
166 199 10 75 -60 276 -138 396 -112 172 -270 298 -446 358 -84 29 -111 33
-273 46 -194 15 -342 48 -855 193 -468 133 -629 167 -810 172 -71 2 -143 1
-160 -1z m350 -225 c142 -26 293 -64 590 -149 509 -145 766 -200 934 -200 142
0 311 -84 425 -211 84 -93 176 -276 176 -349 0 -24 -5 -30 -32 -36 -18 -3 -57
-22 -85 -40 -116 -74 -199 -98 -343 -98 -134 0 -196 17 -322 90 -100 57 -123
57 -218 -2 -164 -102 -292 -140 -431 -130 -125 10 -206 40 -356 133 -99 61
-119 60 -232 -12 -126 -80 -210 -108 -341 -113 -156 -6 -257 25 -417 129 -85
56 -112 55 -212 -10 -121 -77 -211 -104 -346 -104 -133 0 -217 25 -348 103
-104 62 -130 64 -212 12 -128 -81 -224 -107 -371 -100 -117 6 -196 30 -301 93
-40 24 -86 46 -103 50 -39 8 -40 37 -4 131 54 147 147 269 261 348 99 67 188
95 341 107 241 19 441 63 913 202 643 191 752 207 1034 156z m-1612 -1203
c258 -144 552 -142 813 5 l54 31 29 -21 c51 -37 173 -90 256 -112 95 -25 279
-30 365 -10 99 23 216 72 301 127 25 16 27 15 105 -30 267 -154 565 -156 835
-5 l85 48 81 -39 c128 -63 230 -83 399 -78 l141 5 -23 -106 c-12 -58 -41 -199
-65 -313 l-42 -208 -1947 0 -1947 0 -42 208 c-24 114 -53 256 -66 315 l-23
108 61 -8 c34 -4 107 -7 162 -6 117 2 244 35 340 87 33 19 62 34 63 35 2 0 31
-14 65 -33z"/>
<path d="M1985 3295 c-137 -40 -262 -78 -277 -85 -39 -18 -63 -72 -49 -112 6
-18 19 -40 27 -50 34 -37 68 -32 359 51 249 72 283 84 308 111 36 40 36 87 1
129 -38 46 -80 41 -369 -44z"/>
<path d="M2766 3339 c-35 -42 -35 -89 2 -129 24 -27 58 -39 307 -111 291 -83
325 -88 359 -51 8 10 21 32 27 50 14 40 -10 94 -49 112 -59 27 -539 160 -578
160 -35 0 -47 -5 -68 -31z"/>
<path d="M2489 3161 c-28 -28 -29 -33 -29 -125 0 -106 11 -141 51 -162 52 -27
115 -8 137 41 7 14 12 69 12 121 0 92 -1 97 -29 125 -23 23 -38 29 -71 29 -33
0 -48 -6 -71 -29z"/>
<path d="M3303 1903 c-12 -2 -34 -18 -48 -34 -35 -42 -33 -89 4 -131 l29 -33
279 -3 c323 -4 347 0 377 61 16 34 17 42 4 75 -25 68 -45 72 -353 71 -148 -1
-280 -4 -292 -6z"/>
<path d="M4153 1903 c-33 -6 -73 -59 -73 -97 0 -83 104 -127 239 -100 108 22
108 176 0 198 -34 6 -130 6 -166 -1z"/>
</g>
</svg>
