<?xml version="1.0" standalone="no"?>
<!DOCTYPE svg PUBLIC "-//W3C//DTD SVG 20010904//EN"
 "http://www.w3.org/TR/2001/REC-SVG-20010904/DTD/svg10.dtd">
<svg version="1.0" xmlns="http://www.w3.org/2000/svg"
 width="512.000000pt" height="512.000000pt" viewBox="0 0 512.000000 512.000000"
 preserveAspectRatio="xMidYMid meet">

<g transform="translate(0.000000,512.000000) scale(0.100000,-0.100000)"
fill="#000000" stroke="none">
<path d="M3625 5110 c-21 -8 -375 -310 -409 -349 -15 -16 -21 -42 -25 -110
l-6 -89 -77 67 -77 66 -1 147 c0 142 -1 147 -25 176 -27 33 -71 48 -106 37
-24 -8 -383 -312 -414 -351 -16 -20 -21 -46 -25 -117 l-5 -91 -82 72 -83 73 0
190 c0 111 -4 198 -10 210 -16 30 -68 52 -105 45 -23 -5 -87 -54 -221 -170
-104 -90 -198 -173 -208 -185 -15 -16 -21 -43 -25 -110 l-6 -89 -75 65 c-152
132 -188 146 -243 103 -37 -30 -47 -76 -47 -230 l0 -135 -83 -71 c-45 -39
-114 -98 -153 -132 l-71 -61 -143 104 c-153 111 -173 119 -231 90 -16 -9 -34
-27 -39 -41 -6 -14 -10 -160 -10 -328 l0 -303 -82 -5 c-76 -5 -83 -7 -110 -37
-19 -21 -28 -42 -28 -66 0 -38 615 -3361 631 -3413 7 -20 24 -42 43 -53 30
-18 69 -19 1486 -19 1417 0 1456 1 1486 19 19 11 36 33 43 53 16 52 631 3375
631 3413 0 24 -9 45 -28 66 -27 30 -34 32 -110 37 l-82 5 0 213 0 212 -25 30
c-29 35 -70 47 -106 33 -14 -5 -70 -48 -125 -95 -54 -47 -102 -86 -106 -86 -5
0 -8 40 -8 90 0 106 16 85 -213 280 l-146 125 -1 305 c0 182 -4 320 -11 343
-16 59 -79 90 -134 67z m-93 -1410 c-16 -14 -52 -45 -81 -68 l-51 -44 0 535 0
535 78 66 77 65 3 -532 3 -532 -29 -25z m-1442 557 l0 -502 -80 -68 -80 -68 0
504 0 505 78 66 c42 36 78 66 80 66 1 0 2 -226 2 -503z m673 -615 c-115 -107
-103 -158 -102 435 l0 518 82 69 82 69 3 -514 3 -514 -68 -63z m365 701 l63
-58 -3 -162 -3 -163 -77 67 -78 67 0 163 c0 189 -7 182 98 86z m-1460 -40 l53
-48 -3 -132 -3 -132 -77 65 -78 66 0 135 0 134 28 -20 c15 -11 51 -42 80 -68z
m713 -10 l78 -68 1 -147 c0 -82 -3 -148 -6 -148 -3 0 -41 30 -85 68 l-78 67
-1 148 c0 81 3 147 6 147 3 0 41 -30 85 -67z m1482 -246 l67 -59 0 -199 0
-199 -29 0 c-48 0 -92 -21 -112 -54 -19 -31 -19 -30 -19 277 0 244 3 307 13
301 6 -4 42 -34 80 -67z m-2513 -264 c0 -278 0 -278 -19 -247 -20 33 -64 54
-112 54 l-29 0 0 169 0 170 77 65 c42 36 78 66 80 66 2 0 3 -125 3 -277z
m-439 130 l79 -56 0 -134 0 -133 -85 0 -85 0 0 190 c0 105 3 190 6 190 4 0 42
-25 85 -57z m781 -173 l29 -25 -3 -449 -3 -449 -77 73 -78 72 0 445 0 445 51
-44 c29 -23 65 -54 81 -68z m1436 0 l62 -53 0 -501 0 -502 -27 -11 c-16 -6
-52 -21 -80 -32 l-53 -21 0 602 c0 571 1 600 18 586 9 -8 45 -38 80 -68z
m-740 -25 l71 -60 0 -554 1 -553 -57 6 c-32 4 -70 9 -85 12 l-28 6 0 609 c0
510 2 609 14 602 7 -4 45 -35 84 -68z m1912 -40 l0 -85 -85 0 c-66 0 -85 3
-85 14 0 11 155 156 167 156 1 0 3 -38 3 -85z m-2210 -625 l0 -430 -52 21
c-29 11 -65 26 -80 32 l-28 11 0 333 0 332 75 65 c42 36 78 66 80 66 3 0 5
-193 5 -430z m1428 -128 c-24 -24 -60 -57 -80 -74 l-38 -30 0 250 0 249 78 67
77 67 3 -242 2 -243 -42 -44z m-688 74 l0 -424 -27 -6 c-16 -3 -54 -8 -85 -12
l-58 -6 0 368 1 369 77 67 c42 37 80 67 85 67 4 1 7 -190 7 -423z m-1676 372
c2 -7 13 -52 25 -100 75 -314 337 -610 681 -772 119 -55 197 -82 330 -112 358
-81 741 -41 1070 112 344 162 606 458 681 772 12 48 23 93 25 100 3 9 65 12
269 12 l265 0 -5 -22 c-3 -13 -133 -716 -290 -1563 -157 -847 -288 -1552 -291
-1568 l-6 -27 -1348 0 -1348 0 -6 27 c-3 16 -134 721 -291 1568 -157 847 -287
1550 -290 1563 l-5 22 265 0 c204 0 266 -3 269 -12z"/>
<path d="M2355 1925 c-160 -25 -326 -85 -440 -160 -84 -55 -194 -169 -232
-240 -194 -368 83 -755 619 -866 144 -30 372 -30 516 0 190 39 344 109 465
211 267 224 289 547 52 785 -115 116 -259 196 -440 243 -164 43 -374 54 -540
27z m415 -210 c234 -43 420 -157 491 -300 70 -142 24 -289 -126 -402 -308
-231 -842 -231 -1150 0 -105 79 -156 169 -157 274 -1 225 276 414 657 447 62
5 203 -4 285 -19z"/>
<path d="M2140 1383 c-52 -19 -83 -89 -60 -134 23 -46 50 -59 122 -59 57 0 71
4 97 26 25 21 31 33 31 66 0 50 -13 74 -50 93 -28 15 -109 19 -140 8z"/>
<path d="M2504 1374 c-60 -30 -73 -107 -25 -155 l29 -29 239 0 c210 0 240 2
259 18 52 41 55 109 8 153 -25 24 -28 24 -252 27 -190 2 -232 0 -258 -14z"/>
</g>
</svg>
