<?xml version="1.0" standalone="no"?>
<!DOCTYPE svg PUBLIC "-//W3C//DTD SVG 20010904//EN"
 "http://www.w3.org/TR/2001/REC-SVG-20010904/DTD/svg10.dtd">
<svg version="1.0" xmlns="http://www.w3.org/2000/svg"
 width="512.000000pt" height="512.000000pt" viewBox="0 0 512.000000 512.000000"
 preserveAspectRatio="xMidYMid meet">

<g transform="translate(0.000000,512.000000) scale(0.100000,-0.100000)"
fill="#000000" stroke="none">
<path d="M1582 5053 c-139 -149 -192 -267 -192 -428 0 -44 7 -107 14 -140 8
-33 13 -61 12 -63 -2 -1 -25 -18 -52 -37 -131 -93 -270 -268 -333 -419 -53
-128 -73 -218 -78 -361 -4 -123 -1 -148 51 -464 209 -1246 331 -1725 559
-2202 87 -180 197 -329 358 -484 322 -310 708 -472 1074 -451 565 32 1023 426
1151 991 37 161 27 423 -23 595 -66 232 -154 370 -383 605 -189 194 -245 258
-355 404 -264 351 -446 739 -521 1111 -28 139 -61 245 -100 323 -102 203 -258
355 -458 447 -105 48 -180 68 -301 79 -53 6 -99 11 -100 13 -2 2 -30 110 -63
241 -33 130 -67 248 -76 262 -19 29 -53 45 -94 45 -20 0 -42 -17 -90 -67z
m103 -453 c59 -240 60 -240 210 -240 137 0 231 -20 340 -75 151 -74 259 -179
334 -325 46 -90 65 -145 90 -268 l19 -93 -22 7 c-49 15 -109 53 -251 157 -161
118 -231 157 -283 157 -62 0 -120 -46 -141 -112 -13 -39 -16 -233 -6 -327 l6
-56 -25 30 c-14 17 -56 87 -92 156 -75 143 -124 213 -174 247 -29 20 -44 23
-93 20 -107 -8 -140 -50 -173 -224 -61 -322 -92 -423 -159 -515 -34 -45 -40
-49 -46 -33 -5 10 -22 111 -40 224 -25 162 -30 222 -25 285 12 168 79 335 185
468 57 69 120 123 226 190 79 51 83 68 50 209 -30 130 -30 190 0 266 10 24 19
41 21 40 1 -2 23 -86 49 -188z m630 -1025 c140 -104 218 -147 318 -176 113
-32 111 -31 136 -101 83 -231 256 -554 416 -774 l44 -61 -67 5 c-67 4 -69 4
-95 -28 -35 -41 -36 -88 -2 -128 19 -23 45 -35 122 -56 669 -186 980 -919 645
-1522 -158 -284 -475 -492 -796 -523 -350 -33 -719 126 -1021 440 -120 125
-183 211 -254 349 -178 344 -297 758 -441 1525 l-58 310 80 83 c87 93 136 163
172 249 26 63 76 255 96 371 7 39 16 72 20 72 3 0 35 -56 69 -125 50 -98 76
-138 125 -188 109 -109 261 -164 334 -121 51 30 57 58 38 180 -9 59 -19 157
-23 218 -5 95 -4 109 8 100 8 -6 68 -51 134 -99z"/>
<path d="M2733 2479 c-63 -18 -90 -87 -58 -148 20 -40 61 -54 130 -46 78 10
117 44 119 104 1 36 -4 47 -32 72 -26 24 -41 29 -80 28 -26 0 -61 -5 -79 -10z"/>
</g>
</svg>
