<?xml version="1.0" standalone="no"?>
<!DOCTYPE svg PUBLIC "-//W3C//DTD SVG 20010904//EN"
 "http://www.w3.org/TR/2001/REC-SVG-20010904/DTD/svg10.dtd">
<svg version="1.0" xmlns="http://www.w3.org/2000/svg"
 width="512.000000pt" height="512.000000pt" viewBox="0 0 512.000000 512.000000"
 preserveAspectRatio="xMidYMid meet">

<g transform="translate(0.000000,512.000000) scale(0.100000,-0.100000)"
fill="#000000" stroke="none">
<path d="M1235 4016 c-100 -46 -125 -94 -166 -328 l-23 -128 -418 0 -419 0
-24 -25 c-14 -13 -25 -30 -25 -38 0 -8 34 -503 75 -1100 41 -597 75 -1103 75
-1126 l0 -41 -133 0 c-127 0 -135 -1 -155 -23 -39 -41 -25 -97 29 -116 44 -15
4975 -16 5015 -1 56 22 71 80 31 118 -22 21 -32 22 -195 22 -95 0 -172 2 -172
4 0 2 7 19 15 39 30 72 217 846 211 871 -9 38 -54 56 -136 56 l-72 0 26 31
c39 46 34 89 -15 115 -43 22 -69 10 -150 -72 -69 -69 -109 -92 -109 -61 0 8
13 80 30 162 16 81 27 158 24 171 -13 52 -97 66 -128 22 -8 -11 -27 -84 -42
-164 -15 -79 -33 -144 -39 -144 -25 0 -78 44 -105 87 -36 56 -36 63 -7 111 43
69 59 124 64 217 5 103 -6 134 -52 149 -17 6 -32 11 -34 13 -2 1 114 124 259
274 288 298 303 318 303 424 -1 140 -102 250 -242 262 -73 6 -154 -23 -203
-74 -20 -21 -188 -236 -373 -478 -186 -242 -354 -459 -373 -483 l-34 -43 -26
38 c-63 97 -154 167 -263 203 -90 31 -222 26 -249 -8 -47 -58 -35 -201 28
-324 39 -77 39 -77 16 -82 -12 -3 -36 -18 -54 -32 -17 -15 -32 -25 -34 -23 -2
2 -14 24 -26 49 -37 74 -79 126 -121 149 -38 21 -39 24 -39 74 0 67 -16 124
-39 136 -63 34 -198 20 -304 -32 l-68 -34 -34 68 c-51 99 -89 120 -141 76 -32
-28 -35 -67 -8 -118 10 -20 13 -34 6 -37 -5 -1 -43 -24 -83 -50 l-74 -47 -130
-5 c-113 -5 -136 -9 -168 -29 l-37 -23 0 24 c0 14 11 184 25 379 32 452 32
442 -1 468 -25 20 -39 21 -275 21 -137 0 -249 4 -249 8 0 26 50 264 60 281 6
11 19 25 30 31 12 6 151 10 373 10 343 0 355 1 381 21 34 27 36 77 3 107 -23
22 -27 22 -393 22 -365 0 -369 0 -419 -24z m3352 -398 c30 -30 42 -74 31 -114
-10 -38 -640 -697 -710 -744 -46 -31 -126 -110 -145 -144 -10 -18 -12 -18 -45
5 l-36 24 369 480 c202 264 383 491 401 503 41 30 100 25 135 -10z m-2993
-275 c-3 -38 -11 -147 -17 -243 l-12 -175 -244 -3 -243 -2 5 27 c3 16 14 74
23 129 17 96 17 103 1 128 -21 31 -53 41 -90 27 -34 -13 -39 -27 -68 -183
l-23 -128 -288 0 c-158 0 -288 1 -288 3 0 1 -7 92 -15 202 -8 110 -15 219 -15
243 l0 42 639 0 640 0 -5 -67z m1636 -532 c27 -10 68 -34 91 -52 43 -34 102
-116 93 -130 -2 -4 -29 -22 -59 -39 l-55 -31 -29 20 c-68 49 -119 130 -135
214 -6 35 -5 37 18 37 14 0 48 -9 76 -19z m-2340 -58 c0 -10 -57 -321 -126
-692 l-126 -673 19 -27 c32 -42 105 -41 123 2 6 12 66 323 135 692 69 369 127
680 130 693 l5 22 250 0 250 0 0 -39 c0 -75 -21 -296 -28 -299 -5 -1 -37 -19
-72 -40 -72 -42 -115 -95 -125 -152 l-7 -40 -58 0 c-72 0 -104 -11 -126 -45
-16 -24 -13 -39 86 -438 57 -226 109 -424 116 -439 8 -15 14 -32 14 -38 0 -7
-136 -9 -442 -8 l-443 3 -52 750 c-28 413 -52 758 -52 768 -1 16 18 17 264 17
246 0 265 -1 265 -17z m1736 -25 c-10 -61 -64 -155 -111 -194 -45 -36 -111
-68 -162 -78 -31 -5 -33 -4 -33 22 0 51 31 121 76 171 53 59 101 91 164 107
72 20 73 20 66 -28z m1524 -63 c0 -13 -9 -49 -20 -78 l-20 -54 -38 13 c-20 7
-66 13 -101 14 l-64 0 24 26 c31 33 98 73 152 89 60 19 67 18 67 -10z m-1950
-48 c-41 -93 -44 -243 -6 -286 24 -27 111 -37 188 -21 127 25 235 94 309 200
41 58 43 59 62 42 11 -9 31 -39 44 -67 14 -27 39 -70 56 -93 39 -59 30 -75
-85 -140 l-90 -52 -317 0 -316 0 -35 68 c-42 80 -77 104 -119 81 -42 -24 -55
-61 -36 -105 8 -20 15 -38 15 -40 0 -2 -90 -4 -200 -4 -110 0 -200 4 -200 8 0
15 43 48 112 86 84 46 118 80 164 164 62 112 62 112 178 112 119 0 153 8 226
54 30 19 58 34 62 35 4 1 -2 -18 -12 -42z m1460 -137 c107 -63 131 -70 257
-70 118 0 120 -1 173 -103 18 -34 42 -72 52 -84 l20 -21 -97 -4 c-87 -3 -99
-5 -116 -27 -25 -30 -24 -76 1 -101 19 -19 33 -20 423 -20 222 0 406 -2 409
-5 9 -10 -169 -703 -188 -732 -28 -43 -55 -61 -109 -73 -34 -7 -496 -10 -1475
-8 -1324 3 -1427 4 -1456 20 -69 38 -75 54 -167 422 -48 190 -87 353 -87 361
0 13 137 15 1209 15 l1210 0 20 26 c27 35 26 57 -3 91 -23 26 -30 28 -119 31
-88 4 -95 5 -105 27 -16 34 -55 57 -85 50 -13 -4 -40 -22 -58 -41 l-33 -34
-182 0 -182 0 31 56 c18 30 46 76 62 102 l30 47 125 6 c136 6 153 11 237 65
56 36 89 52 108 53 6 1 48 -22 95 -49z"/>
</g>
</svg>
