<?xml version="1.0" standalone="no"?>
<!DOCTYPE svg PUBLIC "-//W3C//DTD SVG 20010904//EN"
 "http://www.w3.org/TR/2001/REC-SVG-20010904/DTD/svg10.dtd">
<svg version="1.0" xmlns="http://www.w3.org/2000/svg"
 width="512.000000pt" height="512.000000pt" viewBox="0 0 512.000000 512.000000"
 preserveAspectRatio="xMidYMid meet">

<g transform="translate(0.000000,512.000000) scale(0.100000,-0.100000)"
fill="#000000" stroke="none">
<path d="M2255 5109 c-382 -54 -746 -205 -1059 -437 -118 -88 -311 -273 -403
-387 -239 -295 -404 -652 -472 -1020 -18 -98 -41 -285 -41 -336 0 -13 -7 -19
-23 -19 -13 0 -47 -15 -77 -32 -42 -26 -61 -45 -82 -87 -27 -52 -28 -57 -28
-215 0 -88 5 -179 11 -201 15 -55 91 -127 152 -144 l47 -14 0 -541 c0 -598 5
-670 59 -834 147 -448 536 -768 1001 -822 67 -8 452 -10 1290 -8 1299 5 1220
1 1400 59 94 31 251 114 339 179 90 67 211 192 270 278 81 120 152 284 187
433 15 65 18 150 21 665 l4 592 47 13 c60 17 136 89 151 144 6 22 11 113 11
201 0 158 -1 163 -28 215 -21 42 -40 61 -82 87 -30 17 -64 32 -76 32 -20 0
-22 6 -29 83 -47 571 -260 1047 -644 1441 -201 205 -385 339 -636 461 -231
113 -428 175 -666 209 -117 18 -535 21 -644 5z m506 -139 c484 -48 926 -250
1277 -585 381 -363 615 -858 657 -1387 l7 -88 -80 0 -80 0 -6 78 c-50 623
-373 1168 -896 1512 -118 77 -325 178 -450 218 -152 50 -356 91 -447 92 -43 0
-73 -30 -73 -73 0 -51 25 -67 132 -83 561 -83 1021 -385 1318 -863 146 -235
241 -524 265 -803 l7 -78 -841 0 c-828 0 -841 0 -861 -20 -27 -27 -26 -81 1
-106 20 -18 55 -19 1097 -22 l1076 -2 23 -22 c22 -21 23 -28 23 -170 0 -145
-1 -150 -25 -173 l-24 -25 -2296 0 -2296 0 -24 25 c-24 23 -25 28 -25 173 0
142 1 149 23 170 l23 22 1076 2 c1042 3 1077 4 1097 22 27 25 28 79 1 106 -20
20 -33 20 -861 20 l-840 0 6 73 c59 659 446 1221 1040 1507 179 86 304 125
524 160 127 21 151 35 151 87 0 43 -30 73 -72 73 -43 0 -195 -24 -283 -45
-197 -45 -440 -150 -615 -265 -416 -273 -707 -676 -833 -1150 -29 -109 -54
-251 -63 -362 l-6 -78 -79 0 c-61 0 -79 3 -79 14 0 8 5 60 10 117 29 288 96
515 231 779 394 771 1236 1234 2090 1150z m-2251 -2753 c0 -2 -18 -21 -40 -42
l-40 -39 0 42 0 42 40 0 c22 0 40 -1 40 -3z m394 -166 c87 -93 158 -173 157
-177 0 -5 -74 -87 -163 -182 l-163 -174 -152 159 c-202 210 -202 184 -7 389
80 85 151 154 158 154 6 0 82 -76 170 -169z m295 49 c152 -158 140 -158 292 0
l115 120 62 0 c34 0 62 -3 62 -6 0 -3 -63 -72 -140 -152 -78 -81 -143 -157
-147 -170 -3 -13 -1 -33 5 -45 5 -12 114 -131 241 -264 216 -226 234 -243 267
-243 41 0 35 -6 308 283 185 195 206 221 206 251 0 30 -17 52 -145 188 l-146
153 63 3 63 3 117 -120 c153 -159 140 -159 295 0 l118 120 62 -3 62 -3 -139
-147 c-77 -80 -144 -157 -149 -170 -5 -13 -5 -33 1 -47 5 -14 84 -103 176
-200 313 -329 294 -311 334 -311 35 0 48 13 270 246 128 135 237 256 241 269
12 36 -4 59 -156 219 l-139 146 66 0 66 0 117 -120 c99 -101 123 -120 148
-120 25 0 48 19 145 120 l115 121 65 -3 64 -3 -138 -145 c-76 -80 -143 -155
-148 -167 -6 -12 -8 -32 -5 -45 6 -23 127 -156 375 -410 91 -94 108 -108 137
-108 39 0 40 1 184 152 l111 116 0 -72 0 -71 -86 -85 c-95 -95 -119 -130 -109
-167 3 -13 44 -64 91 -113 l86 -89 -13 -57 -13 -58 -101 106 c-108 115 -135
133 -176 114 -36 -15 -478 -483 -485 -513 -10 -37 5 -58 130 -190 64 -67 116
-124 116 -128 0 -3 -19 -15 -42 -25 l-43 -19 -115 119 c-100 105 -119 120
-147 120 -27 0 -50 -20 -185 -161 l-154 -160 -64 3 -63 3 174 183 c96 101 180
195 187 209 9 15 10 33 5 48 -10 30 -459 504 -486 514 -11 4 -31 6 -43 3 -27
-5 -473 -469 -490 -510 -8 -17 -9 -35 -3 -51 6 -13 91 -109 191 -213 l180
-188 -70 0 c-68 0 -71 1 -102 38 -18 20 -86 92 -152 160 -102 104 -124 122
-150 122 -33 0 -27 6 -231 -208 l-108 -113 -63 3 -64 3 184 193 c165 173 184
197 184 227 0 31 -23 58 -230 277 -127 134 -243 248 -258 254 -16 7 -36 8 -48
4 -25 -10 -472 -475 -487 -507 -5 -12 -7 -32 -3 -45 3 -13 87 -108 186 -213
l180 -190 -62 -3 -63 -3 -155 161 c-132 137 -159 160 -185 160 -25 0 -49 -19
-147 -120 l-117 -121 -47 20 -46 21 124 131 c67 71 127 139 132 149 5 10 6 29
3 42 -7 28 -461 506 -491 517 -38 15 -74 -9 -171 -115 -54 -57 -100 -102 -105
-99 -4 2 -13 25 -19 50 l-12 46 87 92 c47 51 90 102 95 115 14 36 -4 64 -105
170 l-96 99 0 69 1 69 132 -137 c123 -128 136 -138 170 -138 34 0 48 13 272
248 130 136 238 257 242 270 3 13 2 32 -3 42 -5 11 -73 87 -152 170 l-144 150
68 0 67 0 116 -120z m181 99 c-16 -29 -38 -34 -60 -14 -30 27 -24 35 25 35 43
0 45 -1 35 -21z m748 -148 c89 -93 162 -172 162 -176 0 -4 -75 -86 -167 -182
l-167 -174 -131 138 c-72 76 -148 156 -168 179 l-36 40 162 172 c89 95 167
172 173 172 6 0 83 -76 172 -169z m469 142 l-27 -28 -27 28 -28 27 55 0 55 0
-28 -27z m760 -148 l162 -170 -57 -60 c-31 -33 -107 -113 -168 -178 l-112
-117 -164 171 c-89 94 -163 177 -163 184 0 18 315 347 330 343 6 -2 84 -79
172 -173z m466 150 c-23 -31 -34 -31 -63 0 l-23 25 52 0 52 0 -18 -25z m735
-124 l142 -149 0 -49 -1 -48 -147 -153 -147 -154 -168 177 -167 177 25 30 c60
71 301 318 311 318 6 0 74 -67 152 -149z m142 107 c0 -23 -3 -38 -8 -32 -4 5
-20 24 -36 42 l-30 32 37 0 c37 0 37 0 37 -42z m-4259 -961 c-8 -8 -11 -3 -11
19 1 25 2 27 11 11 8 -14 8 -22 0 -30z m4259 11 c0 -16 -3 -19 -11 -11 -6 6
-8 16 -5 22 11 17 16 13 16 -11z m-3771 -492 l140 -149 -100 -109 c-56 -59
-106 -108 -113 -108 -6 0 -45 31 -86 69 -68 62 -151 167 -209 264 l-23 38 98
100 98 99 27 -27 c15 -16 90 -95 168 -177z m1361 -149 c0 -4 -75 -86 -167
-182 l-166 -175 -122 127 c-66 71 -142 151 -168 179 l-47 51 168 177 167 178
167 -174 c92 -95 167 -177 168 -181z m1064 173 l165 -174 -67 -71 c-36 -38
-112 -118 -169 -177 l-102 -107 -166 174 c-92 96 -165 179 -163 184 5 16 322
350 330 348 4 -1 82 -81 172 -177z m1197 28 l40 -47 -27 -48 c-65 -112 -130
-190 -227 -275 l-58 -51 -45 44 c-25 24 -72 74 -105 111 l-60 67 167 176 168
176 54 -53 c29 -29 72 -74 93 -100z m-3093 -627 c-13 -4 -208 20 -208 27 0 2
21 29 47 59 l46 55 63 -69 c34 -37 57 -70 52 -72z m1174 72 c32 -32 58 -61 58
-65 0 -4 -57 -8 -127 -8 l-127 0 64 65 c35 36 67 65 69 65 3 0 31 -26 63 -57z
m1216 7 c23 -27 39 -51 35 -53 -12 -7 -203 -30 -208 -25 -7 6 106 128 118 128
7 -1 31 -23 55 -50z"/>
<path d="M1214 1665 c-317 -327 -384 -403 -384 -435 0 -26 23 -56 153 -193
315 -333 329 -347 362 -347 33 0 47 14 348 332 141 150 167 183 167 209 0 30
-70 109 -395 446 -121 125 -119 125 -251 -12z m301 -258 c88 -93 160 -172 160
-177 0 -14 -319 -349 -330 -347 -13 2 -330 335 -330 347 0 14 319 349 330 347
6 -1 82 -78 170 -170z"/>
<path d="M2519 1747 c-68 -57 -460 -481 -465 -503 -4 -15 0 -34 10 -49 24 -36
444 -477 471 -494 13 -8 32 -11 48 -7 33 8 493 488 499 520 3 13 1 31 -3 42
-6 18 -150 173 -377 407 -114 117 -134 126 -183 84z m219 -338 c89 -94 162
-174 162 -178 0 -9 -316 -345 -328 -349 -11 -3 -332 334 -332 349 0 11 319
349 330 349 4 0 79 -77 168 -171z"/>
<path d="M3641 1643 c-295 -305 -361 -380 -361 -413 0 -26 21 -53 129 -168
298 -318 354 -372 384 -372 34 0 46 12 321 302 166 176 196 212 196 238 0 30
-98 140 -420 473 -95 98 -96 97 -249 -60z m244 -155 c50 -51 126 -130 169
-175 l79 -82 -168 -176 c-92 -97 -171 -174 -175 -173 -14 6 -330 343 -327 350
3 10 321 348 327 348 3 0 46 -42 95 -92z"/>
</g>
</svg>
